<svg width="274" height="274" viewBox="0 0 274 274" fill="none" xmlns="http://www.w3.org/2000/svg">
<path d="M203.217 219.2L182.667 125.583L222.625 85.625C239.75 68.5 245.458 45.6667 239.75 34.25C228.333 28.5417 205.5 34.25 188.375 51.375L148.417 91.3333L54.8 70.7833C49.0917 69.6417 44.525 71.925 42.2417 76.4917L38.8167 82.2C36.5333 87.9083 37.675 93.6167 42.2417 97.0417L102.75 137L79.9167 171.25H45.6667L34.25 182.667L68.5 205.5L91.3333 239.75L102.75 228.333V194.083L137 171.25L176.958 231.758C180.383 236.325 186.092 237.467 191.8 235.183L197.508 232.9C202.075 229.475 204.358 224.908 203.217 219.2Z" fill="#DB9061"/>
</svg>
